<svg height="40" width="40" xmlns="http://www.w3.org/2000/svg"><g fill="none" fill-rule="evenodd"><path d="M0 0h40v40H0z"/><path d="M7.35960893 10.1880361l5.74753887 5.7475388c-1.4761971 2.4994607-1.4761971 5.6293895 0 8.1288502l-5.74753887 5.7475388c-4.47947857-5.7557997-4.47947857-13.8681281 0-19.6239278zm2.82842717-2.82842717c5.7557997-4.47947857 13.8681281-4.47947857 19.6239278 0l-5.7475388 5.74753887c-2.4994607-1.4761971-5.6293895-1.4761971-8.1288502 0zM29.8119639 32.6403911c-5.7557997 4.4794785-13.8681281 4.4794785-19.6239278 0l5.7475388-5.7475389c2.4994607 1.4761971 5.6293895 1.4761971 8.1288502 0zm2.8284272-2.8284272l-5.7475389-5.7475388c1.4761971-2.4994607 1.4761971-5.6293895 0-8.1288502l5.7475389-5.7475388c4.4794785 5.7557997 4.4794785 13.8681281 0 19.6239278z" fill="#fff"/></g></svg>