<svg height="40" width="40" xmlns="http://www.w3.org/2000/svg"><g fill="none" fill-rule="evenodd"><path d="M0 0h40v40H0z"/><path d="M35.1887019 13.2188418C35.4041933 12.5162618 35.188702 12 34.1631028 12h-3.3914121c-.8623245 0-1.2598684.4459745-1.4754794.9377513 0 0-1.7246489 4.1100496-4.1678417 6.7797955-.7904342.7728088-1.1497659 1.0186972-1.5809282 1.0186972-.2155512 0-.5276091-.2458884-.5276091-.94841v-6.5689922c0-.8430961-.2502522-1.2188418-.9689157-1.2188418h-5.329362c-.538878 0-.8629635.3913002-.8629635.7621502 0 .7992396 1.2215366.9835536 1.347451 3.2318099v4.8828584c0 1.0705499-.1977449 1.2646441-.6289071 1.2646441-1.1497061 0-3.9463694-4.1284108-5.6050491-8.852392C10.6470246 12.3708923 10.3209932 12 9.45424286 12H6.06283071c-.9689749 0-1.16278171.4459745-1.16278171.9377513 0 .8782397 1.14976593 5.2341778 5.353493 10.9952174C13.0560067 27.8673002 17.0044955 30 20.5974542 30c2.1557513 0 2.4224373-.4736842 2.4224373-1.2896037v-2.9735542c0-.9473684.2042231-1.1364369.8868817-1.1364369.5029927 0 1.3653171.2458884 3.3774075 2.1428254C29.5836528 28.9914284 29.9627513 30 31.2561781 30h3.3914122c.9689749 0 1.4534623-.4736842 1.173969-1.4084735-.3058494-.931666-1.4037232-2.2833894-2.860499-3.8857489-.790494-.9133249-1.9761452-1.8968785-2.335477-2.3887723-.5029927-.6322343-.3592719-.9133248 0-1.4753304 0 0 4.1319564-5.6908109 4.5631186-7.6228331z" fill="#fff"/></g></svg>