<svg height="40" width="40" xmlns="http://www.w3.org/2000/svg"><g fill="none" fill-rule="evenodd"><path d="M0 0h40v40H0z"/><path d="M17.9654434 17.6180275l-6.5766593 3.797036c-1.1957316.6903559-2.7247076.2806681-3.41506354-.9150635s-.28066805-2.7247076.91506351-3.4150635l11.25005503-6.4952223c.1524139.6069057.4140164 1.2435039.7989831 1.9102858.5894929 1.0210317 1.2623265 1.7561625 1.9945782 2.2503535l-2.966957 1.7129734v10.5549827c4.4999505.1658148 8 1.4375058 8 2.9816904 0 1.6568542-4.0294372 3-9 3-4.9705627 0-8.99999996-1.3431458-8.99999996-3 0-1.5441846 3.50004956-2.8158756 7.99999996-2.9816904zM23.0310889 11.75c-2-3.46410162-.4490689-4.35953212 1.4641016-5.46410162C26.408361 5.18132889 28.8547226 5.83682951 29.9592921 7.75s.4490689 4.3595321-1.4641016 5.4641016-3.4641016 2-5.4641016-1.4641016z" fill="#fff"/></g></svg>