<svg height="40" width="40" xmlns="http://www.w3.org/2000/svg"><g fill="none" fill-rule="evenodd"><path d="M0 0h40v40H0z"/><path d="M7.95800781 25.7880859c-.65169596 0-1.16161925-.1650374-1.52978515-.4951171-.36816591-.3300798-.5522461-.7913382-.5522461-1.3837891 0-.2792983.04443315-.56494.13330078-.8569336.08886764-.2919937.25178918-.6749651.48876954-1.1489258.76172255-1.4388093 1.52343369-2.7950783 2.28515624-4.0688476.76172256-1.2737694 1.68847108-2.714673 2.78027348-4.3227539.5332058-.7786498 1.0346656-1.320311 1.5043945-1.625.4697289-.3046891 1.0346647-.4570313 1.6948242-.4570313.854822 0 1.525551.2158182 2.012207.6474609.4866561.4316428.7299805 1.0240848.7299805 1.7773438v9.140625h.850586c.4570335 0 .8167304.1290677 1.0791015.387207s.3935547.6030252.3935547 1.034668c0 .4231792-.1290677.7574857-.387207 1.0029297-.2581393.2454439-.6199521.368164-1.0854492.368164h-.850586v1.625c0 .5416694-.1438788.9669581-.4316406 1.2758789-.2877619.3089209-.6813126.463379-1.1806641.463379-.4993514 0-.8907863-.1544581-1.1743164-.463379-.28353-.3089208-.4252929-.7342095-.4252929-1.2758789v-1.625zM14.2929688 14.375h-.1777344c-.7024775 1.0664116-1.5699818 2.4671137-2.6025391 4.2021484-1.0325572 1.7350348-1.86620775 3.1780542-2.50097655 4.3291016v.0888672h5.28125005zm7.7410156 13.0888672c0-.3216162.1015615-.6453434.3046875-.9711914s.5712864-.7638319 1.1044922-1.3139649l4.7353515-5.1035156c.7024775-.753259 1.2039373-1.3964817 1.5043946-1.9296875.3004572-.5332058.4506836-1.0621718.4506836-1.586914 0-.4739608-.110025-.8950177-.3300782-1.2631836s-.5268535-.6538076-.9204101-.8569336c-.3935567-.2031261-.8484675-.3046875-1.3647461-.3046875-.6432324 0-1.1997047.1735008-1.6694336.5205078-.4697289.3470069-.82731.8548143-1.0727539 1.5234375-.203126.3977884-.4210601.685546-.6538086.8632812-.2327486.1777353-.5141585.2666016-.8442383.2666016-.4231792 0-.7680651-.1375312-1.034668-.4125977-.2666029-.2750664-.3999023-.6241841-.3999023-1.0473633 0-.7617225.2539037-1.4895798.7617187-2.1835937.5078151-.6940139 1.210282-1.2547179 2.1074219-1.6821289s1.8958278-.6411133 2.9960938-.6411133c1.1002659 0 2.0883745.2115864 2.9643554.6347656.875981.4231792 1.561521 1.0092736 2.0566407 1.7583008.4951196.7490272.7426757 1.593257.7426757 2.5327149 0 .5839873-.0952139 1.1468072-.2856445 1.6884765-.1904306.5416694-.4993468 1.1129527-.9267578 1.7138672s-1.0092737 1.2864545-1.7456055 2.0566406l-4.0371093 4.3164063v.165039h5.9541015c.4993515 0 .8907864.124836 1.1743164.3745118.2835301.2496757.425293.5945616.425293 1.0346679 0 .4316428-.1417629.7701811-.425293 1.015625-.28353.245444-.6749649.3681641-1.1743164.3681641h-8.5566406c-.5585966 0-1.0050439-.139647-1.3393555-.4189453-.3343115-.2792983-.5014648-.6516904-.5014648-1.1171875z" fill="#fff" fill-rule="nonzero"/></g></svg>